<svg xmlns="http://www.w3.org/2000/svg" xmlns:xlink="http://www.w3.org/1999/xlink" width="500" zoomAndPan="magnify" viewBox="0 0 375 374.999991" height="500" preserveAspectRatio="xMidYMid meet" version="1.0"><defs><clipPath id="f341cc226f"><path d="M 81 67 L 276 67 L 276 319.332031 L 81 319.332031 Z M 81 67 " clip-rule="nonzero"/></clipPath><clipPath id="7979b452c5"><path d="M 81.039062 67.089844 L 275.894531 67.089844 L 275.894531 319.332031 L 81.039062 319.332031 Z M 81.039062 67.089844 " clip-rule="nonzero"/></clipPath><clipPath id="c8161d3950"><path d="M 153.210938 218.589844 L 155.652344 206.816406 C 154.878906 206.199219 154.257812 205.457031 153.789062 204.585938 C 153.320312 203.714844 153.042969 202.785156 152.957031 201.796875 C 152.867188 200.8125 152.980469 199.851562 153.289062 198.910156 C 153.597656 197.96875 154.082031 197.128906 154.738281 196.386719 C 155.394531 195.644531 156.167969 195.0625 157.0625 194.640625 C 157.957031 194.21875 158.898438 193.988281 159.886719 193.953125 C 160.878906 193.917969 161.832031 194.082031 162.757812 194.4375 C 163.679688 194.796875 164.492188 195.324219 165.199219 196.015625 L 188.683594 177.546875 C 188.382812 176.984375 188.171875 176.386719 188.050781 175.757812 L 157.777344 174.808594 C 157.703125 175.933594 157.449219 177.011719 157.011719 178.050781 C 156.574219 179.089844 155.980469 180.027344 155.222656 180.863281 C 154.46875 181.699219 153.597656 182.390625 152.609375 182.929688 C 151.621094 183.472656 150.570312 183.835938 149.457031 184.019531 L 152.210938 218.386719 C 152.546875 218.425781 152.875 218.492188 153.195312 218.585938 M 155.367188 150.953125 C 155.824219 151.019531 156.289062 151.054688 156.75 151.054688 C 157.832031 151.054688 158.882812 150.871094 159.898438 150.5 C 160.914062 150.128906 161.839844 149.597656 162.667969 148.902344 C 163.496094 148.207031 164.179688 147.390625 164.722656 146.453125 C 165.265625 145.519531 165.628906 144.515625 165.816406 143.453125 L 186.605469 144.640625 C 186.773438 146.078125 187.367188 147.3125 188.386719 148.339844 C 189.40625 149.371094 190.632812 149.976562 192.070312 150.160156 L 192.878906 168.410156 C 191.613281 168.691406 190.535156 169.308594 189.644531 170.253906 C 188.757812 171.199219 188.210938 172.316406 188.007812 173.597656 L 157.679688 172.648438 C 157.402344 170.910156 156.714844 169.351562 155.617188 167.976562 C 154.519531 166.601562 153.152344 165.589844 151.515625 164.9375 Z M 148.191406 145.25 C 149.15625 147.667969 150.84375 149.378906 153.253906 150.371094 C 151.769531 155.652344 150.707031 159.253906 149.171875 164.3125 C 148.730469 164.257812 150.746094 164.789062 147.816406 164.226562 C 140.808594 162.851562 132.058594 175.828125 143.152344 183 C 141.945312 186.507812 140.261719 191.554688 138.917969 195.183594 C 138.53125 195.0625 138.136719 195.003906 137.730469 195.003906 L 137.609375 195.003906 C 133.453125 182.269531 129.339844 169.941406 124.953125 157.378906 C 126.101562 156.761719 127.011719 155.894531 127.679688 154.773438 C 128.351562 153.65625 128.683594 152.441406 128.683594 151.140625 C 128.683594 150.902344 128.667969 150.644531 128.644531 150.40625 Z M 133.441406 122.082031 C 133.695312 122.671875 134.058594 123.179688 134.527344 123.617188 C 134.996094 124.050781 135.53125 124.375 136.136719 124.585938 C 136.738281 124.796875 137.359375 124.878906 138 124.832031 C 138.636719 124.785156 139.238281 124.613281 139.804688 124.3125 L 149.890625 135.71875 C 147.992188 137.839844 147.242188 140.3125 147.640625 143.132812 L 128.101562 148.300781 C 127.429688 146.761719 126.347656 145.609375 124.859375 144.839844 C 123.367188 144.070312 121.804688 143.859375 120.160156 144.203125 C 118.519531 144.542969 117.171875 145.367188 116.113281 146.667969 C 115.054688 147.96875 114.527344 149.460938 114.53125 151.136719 C 114.53125 151.382812 114.542969 151.628906 114.570312 151.875 L 101.769531 155.257812 C 101.582031 154.90625 101.355469 154.578125 101.085938 154.28125 L 119.769531 127.9375 C 120.0625 128.019531 120.355469 128.058594 120.65625 128.058594 C 121.476562 128.058594 122.191406 127.789062 122.804688 127.246094 C 123.417969 126.699219 123.773438 126.023438 123.871094 125.207031 Z M 154.707031 105.222656 C 153.949219 105.226562 153.234375 105.402344 152.5625 105.753906 C 151.894531 106.109375 151.34375 106.597656 150.914062 107.222656 C 150.484375 107.851562 150.226562 108.539062 150.136719 109.292969 C 150.050781 110.046875 150.140625 110.777344 150.414062 111.484375 C 150.6875 112.191406 151.109375 112.796875 151.679688 113.292969 C 152.25 113.792969 152.902344 114.132812 153.640625 114.308594 C 154.378906 114.484375 155.117188 114.480469 155.851562 114.292969 C 156.585938 114.105469 157.234375 113.757812 157.796875 113.25 L 172.769531 123.441406 C 172.023438 125.136719 172.058594 126.816406 172.875 128.480469 L 163.445312 135.527344 C 162.6875 134.730469 161.816406 134.089844 160.832031 133.609375 C 159.847656 133.125 158.808594 132.824219 157.714844 132.710938 C 156.625 132.597656 155.546875 132.679688 154.484375 132.953125 C 153.417969 133.222656 152.4375 133.671875 151.535156 134.296875 L 141.445312 122.890625 C 142.054688 122.019531 142.328125 121.050781 142.269531 119.992188 C 142.210938 118.929688 141.828125 118 141.125 117.203125 C 140.421875 116.40625 139.546875 115.914062 138.5 115.722656 C 137.457031 115.53125 136.464844 115.683594 135.523438 116.179688 L 123.714844 102.8125 C 123.785156 102.546875 123.820312 102.277344 123.820312 102 C 123.820312 101.640625 123.761719 101.289062 123.640625 100.949219 L 132.925781 97.195312 C 133.507812 98.007812 134.273438 98.570312 135.222656 98.882812 C 136.171875 99.195312 137.121094 99.195312 138.074219 98.890625 C 139.023438 98.585938 139.792969 98.027344 140.382812 97.222656 C 140.972656 96.414062 141.265625 95.511719 141.269531 94.511719 C 141.265625 94.285156 141.25 94.0625 141.21875 93.839844 L 150.246094 90.1875 C 150.582031 90.5625 150.976562 90.847656 151.441406 91.035156 C 151.90625 91.226562 152.386719 91.304688 152.886719 91.273438 C 153.386719 91.238281 153.855469 91.097656 154.289062 90.847656 C 154.722656 90.597656 155.082031 90.265625 155.363281 89.851562 L 168.769531 93.3125 C 168.769531 93.371094 168.769531 93.429688 168.769531 93.488281 C 168.769531 94.316406 168.960938 95.097656 169.347656 95.832031 C 169.734375 96.566406 170.269531 97.167969 170.953125 97.636719 C 171.636719 98.105469 172.390625 98.386719 173.210938 98.484375 C 174.035156 98.582031 174.835938 98.480469 175.609375 98.183594 C 176.382812 97.886719 177.042969 97.425781 177.589844 96.800781 C 178.132812 96.179688 178.503906 95.464844 178.695312 94.65625 C 178.890625 93.851562 178.882812 93.046875 178.679688 92.242188 C 178.472656 91.4375 178.09375 90.730469 177.539062 90.113281 C 176.980469 89.5 176.316406 89.046875 175.535156 88.761719 C 174.757812 88.476562 173.957031 88.390625 173.136719 88.5 C 172.316406 88.609375 171.566406 88.902344 170.890625 89.382812 C 170.214844 89.863281 169.6875 90.472656 169.3125 91.210938 L 155.90625 87.75 C 155.832031 86.882812 155.46875 86.164062 154.8125 85.589844 C 154.160156 85.015625 153.398438 84.75 152.53125 84.789062 C 151.664062 84.828125 150.929688 85.160156 150.328125 85.789062 C 149.730469 86.417969 149.429688 87.167969 149.433594 88.039062 L 149.433594 88.171875 L 140.40625 91.824219 C 139.820312 91.011719 139.054688 90.449219 138.105469 90.136719 C 137.15625 89.824219 136.203125 89.820312 135.253906 90.128906 C 134.300781 90.433594 133.53125 90.992188 132.941406 91.800781 C 132.351562 92.609375 132.058594 93.511719 132.058594 94.511719 C 132.058594 94.734375 132.074219 94.957031 132.105469 95.175781 L 122.191406 99.167969 C 121.492188 98.765625 120.75 98.640625 119.960938 98.792969 C 119.167969 98.941406 118.523438 99.332031 118.023438 99.964844 C 117.523438 100.597656 117.292969 101.3125 117.328125 102.117188 C 117.363281 102.921875 117.65625 103.617188 118.207031 104.203125 C 118.761719 104.789062 119.4375 105.121094 120.238281 105.203125 C 121.039062 105.285156 121.769531 105.097656 122.429688 104.632812 L 133.882812 117.605469 C 133.515625 118.125 133.273438 118.695312 133.148438 119.316406 L 123.027344 122.628906 C 122.707031 122.28125 122.328125 122.011719 121.890625 121.828125 C 121.453125 121.644531 120.996094 121.5625 120.523438 121.578125 C 120.046875 121.59375 119.597656 121.710938 119.175781 121.925781 C 118.753906 122.136719 118.394531 122.433594 118.097656 122.804688 L 110.496094 120.207031 C 110.496094 120.046875 110.519531 119.875 110.519531 119.707031 C 110.519531 118.914062 110.339844 118.167969 109.976562 117.46875 C 109.613281 116.765625 109.109375 116.1875 108.464844 115.730469 C 107.820312 115.273438 107.105469 114.988281 106.324219 114.878906 C 105.542969 114.769531 104.777344 114.84375 104.035156 115.109375 C 103.289062 115.371094 102.644531 115.789062 102.101562 116.363281 C 101.5625 116.9375 101.183594 117.605469 100.964844 118.367188 C 100.75 119.125 100.71875 119.894531 100.875 120.667969 C 101.035156 121.441406 101.359375 122.136719 101.855469 122.753906 C 102.347656 123.367188 102.957031 123.835938 103.679688 124.15625 C 104.402344 124.472656 105.160156 124.609375 105.949219 124.5625 C 106.734375 124.511719 107.46875 124.285156 108.148438 123.878906 C 108.824219 123.476562 109.371094 122.9375 109.789062 122.265625 L 117.394531 124.863281 C 117.394531 125.054688 117.414062 125.238281 117.449219 125.425781 L 95.058594 138.527344 C 94.507812 137.941406 93.851562 137.515625 93.09375 137.253906 C 92.335938 136.996094 91.558594 136.925781 90.765625 137.050781 C 89.972656 137.175781 89.253906 137.476562 88.609375 137.957031 C 87.964844 138.4375 87.46875 139.039062 87.125 139.765625 C 86.78125 140.492188 86.625 141.253906 86.660156 142.058594 C 86.691406 142.859375 86.914062 143.605469 87.316406 144.300781 C 87.722656 144.996094 88.265625 145.554688 88.949219 145.976562 C 89.628906 146.402344 90.371094 146.640625 91.171875 146.699219 C 91.972656 146.753906 92.742188 146.621094 93.476562 146.296875 C 94.210938 145.972656 94.828125 145.496094 95.324219 144.867188 C 95.824219 144.238281 96.144531 143.527344 96.292969 142.738281 C 96.4375 141.949219 96.394531 141.167969 96.152344 140.402344 L 116.855469 128.285156 L 99.335938 153.035156 C 98.6875 152.769531 98.015625 152.648438 97.316406 152.671875 C 96.617188 152.695312 95.953125 152.863281 95.324219 153.171875 C 94.699219 153.484375 94.164062 153.910156 93.71875 154.449219 C 93.277344 154.992188 92.964844 155.601562 92.785156 156.277344 C 92.605469 156.953125 92.570312 157.636719 92.683594 158.324219 C 92.800781 159.015625 93.050781 159.652344 93.441406 160.234375 C 93.828125 160.816406 94.320312 161.292969 94.917969 161.660156 C 95.511719 162.03125 96.15625 162.257812 96.847656 162.351562 C 97.542969 162.441406 98.222656 162.386719 98.894531 162.183594 C 99.5625 161.980469 100.160156 161.648438 100.6875 161.183594 C 101.214844 160.722656 101.621094 160.175781 101.910156 159.539062 C 102.199219 158.898438 102.34375 158.230469 102.34375 157.53125 C 102.34375 157.476562 102.34375 157.425781 102.34375 157.371094 L 115.140625 153.988281 C 115.9375 155.800781 117.257812 157.058594 119.109375 157.765625 L 113.734375 183.003906 C 112.484375 183.011719 111.390625 183.433594 110.457031 184.261719 L 102.773438 178.636719 C 103.109375 177.875 103.246094 177.078125 103.183594 176.246094 C 103.125 175.414062 102.871094 174.644531 102.429688 173.9375 C 101.984375 173.230469 101.402344 172.667969 100.679688 172.253906 C 99.957031 171.835938 99.179688 171.613281 98.34375 171.582031 C 97.511719 171.554688 96.71875 171.722656 95.96875 172.085938 C 95.21875 172.449219 94.597656 172.96875 94.105469 173.640625 C 93.613281 174.3125 93.304688 175.0625 93.183594 175.886719 C 93.066406 176.714844 93.144531 177.519531 93.425781 178.304688 C 93.707031 179.089844 94.152344 179.765625 94.769531 180.328125 C 95.382812 180.890625 96.09375 181.277344 96.902344 181.484375 C 97.710938 181.695312 98.519531 181.703125 99.332031 181.507812 C 100.140625 181.316406 100.863281 180.945312 101.488281 180.394531 L 109.167969 186.011719 C 108.644531 187.214844 108.59375 188.433594 109.015625 189.675781 L 89.863281 201.402344 C 89.285156 200.800781 88.597656 200.371094 87.808594 200.113281 C 87.015625 199.851562 86.210938 199.792969 85.386719 199.9375 C 84.566406 200.078125 83.828125 200.402344 83.167969 200.914062 C 82.507812 201.421875 82.007812 202.058594 81.664062 202.816406 C 81.320312 203.574219 81.171875 204.371094 81.226562 205.203125 C 81.277344 206.035156 81.519531 206.804688 81.957031 207.515625 C 82.390625 208.226562 82.964844 208.792969 83.683594 209.21875 C 84.398438 209.644531 85.175781 209.875 86.007812 209.914062 C 86.839844 209.953125 87.632812 209.796875 88.386719 209.441406 C 89.140625 209.085938 89.765625 208.574219 90.265625 207.90625 C 90.765625 207.242188 91.082031 206.496094 91.210938 205.671875 C 91.339844 204.851562 91.269531 204.042969 91 203.257812 L 110.15625 191.53125 C 111.144531 192.5625 112.351562 193.074219 113.78125 193.070312 C 114.371094 193.070312 114.941406 192.972656 115.492188 192.773438 L 119.199219 199.410156 C 118.582031 199.960938 118.132812 200.625 117.84375 201.398438 C 117.558594 202.175781 117.46875 202.972656 117.578125 203.792969 C 117.6875 204.609375 117.980469 205.355469 118.460938 206.03125 C 118.941406 206.703125 119.550781 207.222656 120.289062 207.59375 C 121.027344 207.964844 121.8125 208.140625 122.636719 208.121094 C 123.464844 208.101562 124.238281 207.890625 124.957031 207.488281 C 125.679688 207.085938 126.265625 206.535156 126.714844 205.84375 C 127.164062 205.148438 127.425781 204.390625 127.496094 203.566406 C 127.566406 202.746094 127.445312 201.953125 127.121094 201.191406 C 126.800781 200.429688 126.320312 199.789062 125.679688 199.265625 C 125.039062 198.742188 124.3125 198.402344 123.503906 198.238281 C 122.691406 198.078125 121.890625 198.113281 121.101562 198.347656 L 117.324219 191.609375 C 117.910156 191.023438 118.324219 190.339844 118.574219 189.550781 C 118.820312 188.765625 118.871094 187.964844 118.726562 187.152344 C 118.582031 186.339844 118.253906 185.605469 117.75 184.953125 C 117.242188 184.300781 116.613281 183.804688 115.863281 183.460938 L 121.234375 158.222656 C 121.363281 158.222656 121.496094 158.222656 121.625 158.222656 C 122.0625 158.222656 122.5 158.183594 122.933594 158.101562 L 127.796875 171.84375 L 135.5625 195.679688 C 134.300781 196.542969 133.742188 197.734375 133.886719 199.257812 C 134.03125 200.78125 134.804688 201.847656 136.207031 202.457031 L 131.324219 215.464844 C 130.566406 215.324219 129.808594 215.324219 129.050781 215.46875 C 128.289062 215.609375 127.582031 215.882812 126.925781 216.289062 C 126.269531 216.695312 125.707031 217.203125 125.238281 217.816406 C 124.773438 218.429688 124.429688 219.105469 124.210938 219.847656 L 114.945312 218.855469 C 114.773438 217.894531 114.304688 217.109375 113.539062 216.503906 C 112.777344 215.894531 111.90625 215.613281 110.933594 215.660156 C 109.957031 215.707031 109.121094 216.070312 108.417969 216.75 C 107.71875 217.429688 107.328125 218.253906 107.25 219.226562 C 107.167969 220.199219 107.421875 221.078125 108.003906 221.859375 C 108.585938 222.644531 109.355469 223.136719 110.308594 223.339844 L 112.398438 251.515625 C 111.597656 251.757812 110.902344 252.167969 110.308594 252.753906 C 109.714844 253.339844 109.289062 254.03125 109.039062 254.828125 C 108.789062 255.625 108.738281 256.433594 108.890625 257.253906 C 109.042969 258.074219 109.375 258.8125 109.894531 259.464844 C 110.414062 260.121094 111.054688 260.613281 111.816406 260.949219 C 112.582031 261.285156 113.378906 261.421875 114.210938 261.363281 C 115.042969 261.300781 115.8125 261.050781 116.519531 260.605469 C 117.226562 260.164062 117.789062 259.578125 118.207031 258.855469 C 118.621094 258.132812 118.84375 257.355469 118.875 256.519531 C 118.90625 255.6875 118.738281 254.894531 118.375 254.144531 C 118.011719 253.394531 117.492188 252.769531 116.816406 252.277344 C 116.144531 251.785156 115.394531 251.476562 114.570312 251.359375 L 112.484375 223.179688 C 113.542969 222.78125 114.285156 222.0625 114.714844 221.015625 L 123.980469 222.011719 C 124.019531 222.546875 124.121094 223.066406 124.292969 223.574219 C 124.464844 224.082031 124.699219 224.558594 124.992188 225.007812 C 125.285156 225.453125 125.632812 225.859375 126.03125 226.214844 C 126.429688 226.574219 126.867188 226.875 127.34375 227.121094 C 127.820312 227.367188 128.320312 227.546875 128.84375 227.660156 C 129.367188 227.777344 129.898438 227.824219 130.433594 227.804688 C 130.96875 227.785156 131.492188 227.695312 132.003906 227.539062 C 132.515625 227.382812 133 227.164062 133.457031 226.882812 C 133.914062 226.601562 134.328125 226.269531 134.695312 225.878906 C 135.066406 225.492188 135.378906 225.0625 135.640625 224.59375 C 135.898438 224.125 136.09375 223.628906 136.226562 223.109375 C 136.355469 222.589844 136.417969 222.0625 136.414062 221.527344 C 136.410156 220.992188 136.335938 220.464844 136.195312 219.949219 C 136.054688 219.433594 135.851562 218.941406 135.582031 218.476562 C 135.316406 218.011719 134.992188 217.589844 134.617188 217.210938 C 134.238281 216.828125 133.820312 216.5 133.359375 216.230469 L 138.429688 202.71875 C 139.105469 202.601562 139.710938 202.320312 140.238281 201.882812 C 140.765625 201.441406 141.152344 200.902344 141.394531 200.257812 C 141.636719 199.617188 141.703125 198.953125 141.59375 198.277344 C 141.484375 197.597656 141.214844 196.992188 140.785156 196.457031 L 145.363281 183.847656 C 146 184.007812 146.644531 184.105469 147.296875 184.144531 L 150.054688 218.503906 C 147.308594 219.152344 145.265625 221.832031 145.265625 224.566406 C 145.265625 227.300781 146.734375 229.21875 148.863281 230.207031 L 135.167969 272.4375 L 134.960938 272.4375 C 134.132812 272.4375 133.355469 272.628906 132.625 273.015625 C 131.890625 273.402344 131.292969 273.933594 130.824219 274.617188 C 130.355469 275.296875 130.074219 276.050781 129.976562 276.871094 C 129.878906 277.691406 129.980469 278.488281 130.273438 279.261719 C 130.570312 280.03125 131.027344 280.691406 131.648438 281.238281 C 132.269531 281.78125 132.984375 282.152344 133.785156 282.347656 C 134.589844 282.542969 135.394531 282.539062 136.195312 282.335938 C 136.996094 282.132812 137.707031 281.757812 138.320312 281.207031 C 138.9375 280.652344 139.390625 279.992188 139.679688 279.214844 C 139.964844 278.441406 140.058594 277.644531 139.953125 276.824219 C 139.847656 276.003906 139.558594 275.253906 139.085938 274.578125 C 138.609375 273.902344 138.003906 273.371094 137.269531 272.996094 L 150.96875 230.765625 C 151.136719 230.78125 149.679688 230.789062 151.484375 230.789062 C 153.292969 230.789062 157.710938 227.320312 157.710938 224.570312 C 157.710938 221.820312 156.703125 220.675781 155.160156 219.546875 L 157.535156 207.902344 C 158.945312 208.445312 160.378906 208.539062 161.847656 208.183594 C 163.3125 207.824219 164.546875 207.082031 165.546875 205.953125 C 166.546875 204.820312 167.132812 203.507812 167.308594 202.007812 C 167.484375 200.507812 167.214844 199.09375 166.503906 197.761719 L 190.03125 179.261719 C 190.09375 179.320312 190.160156 179.375 190.230469 179.433594 L 179.773438 197.882812 C 179.265625 197.722656 178.742188 197.644531 178.210938 197.644531 C 177.128906 197.644531 176.144531 197.953125 175.257812 198.566406 C 174.371094 199.179688 173.734375 199.992188 173.351562 201 C 172.96875 202.011719 172.90625 203.039062 173.164062 204.085938 C 173.421875 205.136719 173.953125 206.019531 174.761719 206.734375 L 165.886719 232.636719 C 165.398438 232.484375 166.035156 232.398438 164.328125 232.398438 C 162.617188 232.398438 159.125 234.726562 159.125 237.601562 C 159.125 238.292969 159.257812 238.953125 159.523438 239.59375 C 159.785156 240.230469 160.160156 240.792969 160.648438 241.28125 C 161.136719 241.765625 161.699219 242.144531 162.335938 242.40625 C 162.972656 242.671875 163.636719 242.804688 164.328125 242.804688 C 167.199219 242.804688 169.527344 239.8125 169.527344 237.601562 C 169.527344 235.390625 168.855469 234.667969 167.78125 233.710938 L 176.652344 207.808594 L 176.925781 207.886719 L 182.125 222.722656 C 181.261719 222.914062 180.554688 223.363281 180.011719 224.0625 C 179.464844 224.761719 179.203125 225.554688 179.230469 226.441406 C 179.230469 228.398438 180.949219 230.277344 183.070312 230.277344 C 185.1875 230.277344 186.90625 228.34375 186.90625 226.441406 C 186.90625 224.539062 185.8125 223.316406 184.292969 222.804688 L 179.09375 207.972656 C 180.324219 207.757812 181.347656 207.171875 182.160156 206.222656 C 182.972656 205.269531 183.386719 204.167969 183.40625 202.917969 L 207.171875 198.167969 C 207.460938 198.714844 207.859375 199.164062 208.367188 199.519531 C 208.875 199.875 209.433594 200.09375 210.050781 200.175781 C 210.664062 200.257812 211.261719 200.195312 211.847656 199.988281 C 212.429688 199.78125 212.933594 199.453125 213.359375 199 C 213.78125 198.546875 214.078125 198.023438 214.25 197.429688 C 214.417969 196.832031 214.445312 196.230469 214.324219 195.625 C 214.199219 195.015625 213.945312 194.46875 213.5625 193.984375 C 213.175781 193.5 212.699219 193.132812 212.132812 192.878906 C 211.570312 192.625 210.976562 192.511719 210.359375 192.546875 C 209.738281 192.578125 209.160156 192.75 208.625 193.0625 C 208.089844 193.378906 207.65625 193.792969 207.324219 194.316406 C 206.992188 194.839844 206.796875 195.410156 206.742188 196.027344 L 182.96875 200.78125 C 182.660156 200.074219 182.21875 199.46875 181.644531 198.957031 L 192.097656 180.507812 C 192.941406 180.808594 193.808594 180.921875 194.699219 180.851562 C 195.589844 180.78125 196.429688 180.53125 197.214844 180.105469 C 198 179.679688 198.667969 179.113281 199.210938 178.402344 C 199.753906 177.695312 200.132812 176.902344 200.339844 176.035156 C 200.546875 175.164062 200.570312 174.292969 200.40625 173.410156 C 200.246094 172.53125 199.910156 171.726562 199.402344 170.988281 C 198.894531 170.253906 198.261719 169.652344 197.5 169.183594 C 196.734375 168.71875 195.910156 168.425781 195.023438 168.308594 L 194.214844 150.058594 C 195.269531 149.824219 196.199219 149.347656 197.007812 148.632812 L 215.300781 163.328125 C 215.046875 163.789062 214.851562 164.269531 214.71875 164.773438 C 214.585938 165.28125 214.515625 165.796875 214.511719 166.316406 C 214.503906 166.839844 214.5625 167.355469 214.6875 167.867188 C 214.808594 168.375 214.992188 168.859375 215.234375 169.324219 C 215.480469 169.785156 215.777344 170.210938 216.125 170.601562 C 216.472656 170.988281 216.867188 171.332031 217.300781 171.621094 C 217.734375 171.914062 218.195312 172.148438 218.6875 172.324219 C 219.183594 172.503906 219.6875 172.617188 220.207031 172.667969 C 220.730469 172.71875 221.25 172.703125 221.765625 172.625 C 222.28125 172.546875 222.78125 172.40625 223.265625 172.203125 C 223.746094 172.003906 224.195312 171.742188 224.617188 171.429688 C 225.035156 171.113281 225.40625 170.753906 225.734375 170.347656 C 226.0625 169.941406 226.335938 169.5 226.554688 169.023438 C 226.773438 168.546875 226.929688 168.054688 227.027344 167.539062 C 227.121094 167.027344 227.152344 166.507812 227.121094 165.984375 C 227.085938 165.464844 226.992188 164.953125 226.832031 164.457031 C 226.671875 163.957031 226.453125 163.484375 226.175781 163.042969 C 225.898438 162.597656 225.570312 162.195312 225.195312 161.832031 C 224.816406 161.472656 224.402344 161.160156 223.945312 160.902344 C 223.492188 160.644531 223.011719 160.441406 222.507812 160.304688 C 222.003906 160.164062 221.492188 160.085938 220.96875 160.074219 C 220.445312 160.0625 219.929688 160.117188 219.417969 160.230469 C 218.910156 160.347656 218.421875 160.523438 217.957031 160.761719 C 217.488281 161 217.058594 161.289062 216.664062 161.636719 L 198.402344 146.941406 C 198.84375 146.140625 199.097656 145.289062 199.167969 144.378906 C 199.238281 143.472656 199.117188 142.589844 198.804688 141.734375 C 198.492188 140.878906 198.015625 140.125 197.378906 139.476562 C 196.738281 138.824219 195.996094 138.335938 195.144531 138.007812 C 194.292969 137.683594 193.414062 137.546875 192.503906 137.601562 C 191.59375 137.65625 190.738281 137.894531 189.933594 138.320312 C 189.125 138.746094 188.445312 139.320312 187.886719 140.042969 C 187.332031 140.761719 186.949219 141.566406 186.742188 142.453125 L 165.949219 141.265625 C 165.863281 139.828125 165.460938 138.488281 164.742188 137.238281 L 174.183594 130.203125 C 174.546875 130.539062 174.949219 130.828125 175.390625 131.066406 C 175.828125 131.304688 176.289062 131.484375 176.773438 131.605469 C 177.257812 131.730469 177.75 131.789062 178.25 131.789062 C 178.746094 131.789062 179.238281 131.722656 179.722656 131.601562 C 180.207031 131.476562 180.667969 131.292969 181.105469 131.050781 C 181.542969 130.8125 181.941406 130.523438 182.308594 130.179688 C 182.671875 129.839844 182.988281 129.457031 183.257812 129.039062 C 183.527344 128.617188 183.738281 128.171875 183.894531 127.695312 L 210.785156 131.421875 C 210.863281 132.171875 211.109375 132.863281 211.527344 133.492188 C 211.949219 134.125 212.488281 134.621094 213.152344 134.984375 C 213.816406 135.34375 214.527344 135.53125 215.28125 135.546875 C 216.039062 135.558594 216.753906 135.394531 217.429688 135.054688 C 218.105469 134.710938 218.664062 134.234375 219.101562 133.617188 C 219.539062 133.003906 219.8125 132.320312 219.914062 131.570312 C 220.015625 130.820312 219.9375 130.089844 219.679688 129.378906 C 219.421875 128.667969 219.015625 128.058594 218.457031 127.550781 C 217.898438 127.039062 217.25 126.691406 216.519531 126.5 C 215.789062 126.308594 215.054688 126.296875 214.316406 126.46875 C 213.578125 126.640625 212.925781 126.972656 212.351562 127.46875 C 211.78125 127.960938 211.355469 128.5625 211.078125 129.265625 L 184.195312 125.5625 C 184.15625 124.734375 183.953125 123.949219 183.589844 123.207031 L 196.765625 113.375 C 197.347656 113.855469 198.007812 114.171875 198.746094 114.328125 C 199.488281 114.480469 200.21875 114.457031 200.945312 114.25 C 201.671875 114.042969 202.308594 113.675781 202.855469 113.15625 C 203.402344 112.636719 203.796875 112.015625 204.039062 111.300781 C 204.28125 110.585938 204.34375 109.855469 204.222656 109.109375 C 204.105469 108.363281 203.820312 107.6875 203.367188 107.082031 C 202.914062 106.476562 202.347656 106.011719 201.667969 105.6875 C 200.984375 105.359375 200.265625 105.210938 199.511719 105.242188 C 198.757812 105.269531 198.050781 105.472656 197.398438 105.847656 C 196.742188 106.226562 196.210938 106.734375 195.808594 107.371094 C 195.402344 108.007812 195.171875 108.703125 195.109375 109.457031 C 195.046875 110.210938 195.164062 110.933594 195.460938 111.628906 L 182.28125 121.460938 C 181.714844 120.9375 181.066406 120.535156 180.34375 120.261719 C 179.621094 119.988281 178.875 119.859375 178.101562 119.875 C 177.328125 119.890625 176.585938 120.050781 175.875 120.359375 C 175.164062 120.664062 174.539062 121.089844 173.996094 121.640625 L 159.023438 111.449219 C 159.289062 110.742188 159.375 110.011719 159.28125 109.261719 C 159.1875 108.511719 158.925781 107.828125 158.496094 107.207031 C 158.066406 106.585938 157.515625 106.101562 156.847656 105.75 C 156.179688 105.398438 155.46875 105.222656 154.710938 105.222656 Z M 238.453125 151.429688 C 243.484375 236.042969 145.355469 219.894531 143.71875 319.636719 C 156.820312 298.574219 170.78125 290.179688 185.605469 294.449219 C 206.886719 308.605469 220.234375 308.769531 225.652344 294.945312 C 224.808594 289.398438 226.195312 285.574219 229.808594 283.472656 C 236.285156 282.988281 238.742188 279.785156 237.175781 273.863281 C 242.675781 275.226562 245.722656 273.804688 246.320312 269.601562 C 244.179688 261.898438 248.183594 257.914062 258.335938 257.652344 C 265.554688 257.046875 268.84375 254.417969 268.199219 249.773438 C 265.621094 236.90625 263.855469 227.789062 262.890625 222.414062 C 260.535156 214.203125 261.84375 206.367188 266.824219 198.914062 C 285.199219 157.683594 275.089844 121.816406 236.492188 91.300781 C 183.425781 55.347656 134.746094 61.707031 104.738281 95.746094 C 107.558594 93.265625 110.535156 90.988281 113.671875 88.921875 C 116.808594 86.855469 120.070312 85.019531 123.464844 83.410156 C 126.859375 81.800781 130.347656 80.433594 133.933594 79.3125 C 137.515625 78.1875 141.160156 77.320312 144.867188 76.710938 C 148.574219 76.097656 152.304688 75.746094 156.058594 75.65625 C 159.8125 75.5625 163.554688 75.734375 167.285156 76.167969 C 171.019531 76.601562 174.699219 77.289062 178.335938 78.238281 C 181.96875 79.183594 185.519531 80.382812 188.988281 81.824219 C 192.453125 83.269531 195.804688 84.949219 199.039062 86.859375 C 202.269531 88.773438 205.351562 90.898438 208.289062 93.242188 C 211.222656 95.585938 213.980469 98.125 216.5625 100.851562 C 219.140625 103.582031 221.519531 106.476562 223.695312 109.539062 C 225.871094 112.601562 227.824219 115.800781 229.550781 119.132812 C 231.277344 122.46875 232.765625 125.90625 234.015625 129.449219 C 235.261719 132.992188 236.257812 136.605469 237 140.289062 C 237.742188 143.96875 238.222656 147.683594 238.445312 151.433594 Z M 238.453125 151.429688 " clip-rule="evenodd"/></clipPath></defs><g clip-path="url(#f341cc226f)"><path fill="#744dcb" d="M 153.210938 218.589844 L 155.652344 206.816406 C 155.269531 206.511719 154.921875 206.171875 154.609375 205.796875 C 154.292969 205.417969 154.019531 205.015625 153.789062 204.585938 C 153.558594 204.152344 153.371094 203.703125 153.230469 203.234375 C 153.089844 202.765625 153 202.285156 152.957031 201.796875 C 152.914062 201.3125 152.917969 200.824219 152.976562 200.335938 C 153.03125 199.851562 153.136719 199.375 153.289062 198.910156 C 153.441406 198.445312 153.640625 198 153.886719 197.574219 C 154.128906 197.148438 154.414062 196.753906 154.738281 196.386719 C 155.0625 196.019531 155.417969 195.691406 155.8125 195.394531 C 156.203125 195.101562 156.621094 194.851562 157.0625 194.640625 C 157.503906 194.433594 157.964844 194.269531 158.441406 194.152344 C 158.917969 194.039062 159.398438 193.972656 159.886719 193.953125 C 160.378906 193.9375 160.863281 193.96875 161.347656 194.050781 C 161.828125 194.132812 162.300781 194.261719 162.757812 194.4375 C 163.210938 194.617188 163.648438 194.835938 164.058594 195.101562 C 164.46875 195.367188 164.851562 195.671875 165.199219 196.015625 L 188.683594 177.546875 C 188.382812 176.984375 188.171875 176.386719 188.050781 175.757812 L 157.777344 174.808594 C 157.742188 175.367188 157.660156 175.917969 157.53125 176.460938 C 157.402344 177.007812 157.230469 177.535156 157.011719 178.050781 C 156.796875 178.566406 156.535156 179.0625 156.234375 179.53125 C 155.9375 180.003906 155.597656 180.449219 155.222656 180.863281 C 154.847656 181.277344 154.441406 181.660156 154.003906 182.007812 C 153.5625 182.355469 153.097656 182.660156 152.609375 182.929688 C 152.117188 183.199219 151.609375 183.425781 151.078125 183.609375 C 150.550781 183.789062 150.011719 183.929688 149.457031 184.019531 L 152.210938 218.386719 C 152.546875 218.425781 152.875 218.492188 153.195312 218.585938 M 155.367188 150.953125 C 155.824219 151.019531 156.289062 151.054688 156.75 151.054688 C 157.289062 151.054688 157.820312 151.007812 158.351562 150.914062 C 158.878906 150.824219 159.394531 150.683594 159.898438 150.5 C 160.402344 150.316406 160.886719 150.089844 161.351562 149.824219 C 161.816406 149.554688 162.257812 149.246094 162.667969 148.902344 C 163.078125 148.558594 163.457031 148.179688 163.800781 147.769531 C 164.148438 147.359375 164.453125 146.917969 164.722656 146.453125 C 164.992188 145.988281 165.21875 145.503906 165.402344 145 C 165.585938 144.496094 165.722656 143.980469 165.816406 143.453125 L 186.605469 144.640625 C 186.6875 145.339844 186.882812 146.003906 187.1875 146.640625 C 187.492188 147.273438 187.890625 147.839844 188.386719 148.339844 C 188.882812 148.839844 189.445312 149.246094 190.078125 149.558594 C 190.707031 149.871094 191.371094 150.070312 192.070312 150.160156 L 192.878906 168.410156 C 192.257812 168.546875 191.675781 168.773438 191.125 169.089844 C 190.570312 169.402344 190.078125 169.792969 189.644531 170.253906 C 189.210938 170.714844 188.855469 171.234375 188.574219 171.800781 C 188.296875 172.371094 188.109375 172.972656 188.007812 173.597656 L 157.679688 172.648438 C 157.542969 171.792969 157.300781 170.96875 156.953125 170.179688 C 156.601562 169.386719 156.15625 168.652344 155.617188 167.976562 C 155.078125 167.300781 154.460938 166.703125 153.765625 166.191406 C 153.070312 165.675781 152.320312 165.257812 151.515625 164.9375 Z M 148.191406 145.25 C 148.65625 146.410156 149.324219 147.433594 150.203125 148.324219 C 151.082031 149.210938 152.097656 149.894531 153.253906 150.371094 C 151.769531 155.652344 150.707031 159.253906 149.171875 164.3125 C 148.730469 164.257812 150.746094 164.789062 147.816406 164.226562 C 140.808594 162.851562 132.058594 175.828125 143.152344 183 C 141.945312 186.507812 140.261719 191.554688 138.917969 195.183594 C 138.53125 195.0625 138.136719 195.003906 137.730469 195.003906 L 137.609375 195.003906 C 133.453125 182.269531 129.339844 169.941406 124.953125 157.378906 C 125.515625 157.074219 126.03125 156.703125 126.492188 156.261719 C 126.957031 155.820312 127.351562 155.324219 127.679688 154.773438 C 128.007812 154.226562 128.257812 153.640625 128.429688 153.023438 C 128.601562 152.40625 128.683594 151.777344 128.683594 151.140625 C 128.683594 150.902344 128.667969 150.644531 128.644531 150.40625 Z M 133.441406 122.082031 C 133.566406 122.375 133.722656 122.648438 133.902344 122.90625 C 134.085938 123.164062 134.292969 123.402344 134.527344 123.617188 C 134.757812 123.832031 135.011719 124.023438 135.28125 124.183594 C 135.550781 124.347656 135.835938 124.484375 136.136719 124.585938 C 136.433594 124.691406 136.742188 124.765625 137.054688 124.804688 C 137.367188 124.847656 137.683594 124.855469 138 124.832031 C 138.3125 124.808594 138.625 124.753906 138.929688 124.667969 C 139.230469 124.578125 139.523438 124.460938 139.804688 124.3125 L 149.890625 135.71875 C 148.988281 136.730469 148.339844 137.882812 147.945312 139.175781 C 147.554688 140.472656 147.453125 141.789062 147.640625 143.132812 L 128.101562 148.300781 C 127.773438 147.554688 127.332031 146.882812 126.777344 146.289062 C 126.222656 145.695312 125.582031 145.214844 124.859375 144.839844 C 124.136719 144.46875 123.371094 144.226562 122.566406 144.117188 C 121.757812 144.007812 120.957031 144.035156 120.160156 144.203125 C 119.363281 144.367188 118.621094 144.664062 117.925781 145.085938 C 117.230469 145.511719 116.625 146.039062 116.113281 146.667969 C 115.601562 147.300781 115.207031 148 114.9375 148.765625 C 114.664062 149.53125 114.527344 150.324219 114.527344 151.136719 C 114.53125 151.382812 114.542969 151.628906 114.570312 151.875 L 101.769531 155.257812 C 101.582031 154.90625 101.355469 154.578125 101.085938 154.28125 L 119.769531 127.9375 C 120.0625 128.019531 120.355469 128.058594 120.65625 128.058594 C 121.050781 128.058594 121.433594 127.988281 121.804688 127.847656 C 122.175781 127.710938 122.507812 127.507812 122.804688 127.246094 C 123.101562 126.980469 123.339844 126.675781 123.527344 126.324219 C 123.710938 125.972656 123.824219 125.601562 123.871094 125.207031 Z M 154.707031 105.222656 C 154.335938 105.222656 153.964844 105.269531 153.605469 105.359375 C 153.242188 105.449219 152.894531 105.582031 152.5625 105.753906 C 152.234375 105.929688 151.929688 106.140625 151.648438 106.390625 C 151.371094 106.636719 151.125 106.917969 150.914062 107.222656 C 150.703125 107.53125 150.53125 107.863281 150.402344 108.210938 C 150.269531 108.5625 150.183594 108.921875 150.136719 109.292969 C 150.09375 109.664062 150.097656 110.035156 150.144531 110.40625 C 150.191406 110.777344 150.28125 111.136719 150.414062 111.484375 C 150.546875 111.832031 150.722656 112.160156 150.9375 112.464844 C 151.152344 112.773438 151.398438 113.046875 151.679688 113.292969 C 151.960938 113.539062 152.265625 113.75 152.597656 113.921875 C 152.929688 114.09375 153.277344 114.222656 153.640625 114.308594 C 154.003906 114.394531 154.375 114.4375 154.746094 114.433594 C 155.121094 114.433594 155.488281 114.382812 155.851562 114.292969 C 156.210938 114.199219 156.558594 114.066406 156.886719 113.890625 C 157.214844 113.710938 157.519531 113.5 157.796875 113.25 L 172.769531 123.441406 C 172.414062 124.246094 172.246094 125.089844 172.265625 125.972656 C 172.285156 126.851562 172.488281 127.6875 172.875 128.480469 L 163.445312 135.527344 C 163.066406 135.132812 162.660156 134.773438 162.222656 134.453125 C 161.785156 134.128906 161.320312 133.847656 160.832031 133.609375 C 160.34375 133.367188 159.835938 133.171875 159.3125 133.023438 C 158.789062 132.871094 158.257812 132.769531 157.714844 132.710938 C 157.175781 132.65625 156.632812 132.648438 156.089844 132.6875 C 155.546875 132.730469 155.011719 132.816406 154.484375 132.953125 C 153.957031 133.085938 153.445312 133.265625 152.949219 133.492188 C 152.453125 133.71875 151.980469 133.984375 151.535156 134.296875 L 141.445312 122.890625 C 141.742188 122.464844 141.960938 122.007812 142.101562 121.511719 C 142.242188 121.011719 142.300781 120.507812 142.269531 119.992188 C 142.242188 119.476562 142.128906 118.980469 141.933594 118.5 C 141.734375 118.023438 141.464844 117.59375 141.125 117.203125 C 140.785156 116.816406 140.386719 116.496094 139.9375 116.242188 C 139.488281 115.988281 139.007812 115.816406 138.5 115.722656 C 137.992188 115.628906 137.484375 115.625 136.972656 115.703125 C 136.464844 115.78125 135.980469 115.941406 135.523438 116.179688 L 123.714844 102.8125 C 123.785156 102.546875 123.820312 102.277344 123.820312 102 C 123.820312 101.640625 123.761719 101.289062 123.640625 100.949219 L 132.925781 97.195312 C 133.207031 97.59375 133.546875 97.933594 133.941406 98.222656 C 134.332031 98.507812 134.761719 98.730469 135.222656 98.882812 C 135.6875 99.035156 136.160156 99.109375 136.648438 99.113281 C 137.132812 99.113281 137.609375 99.039062 138.074219 98.890625 C 138.535156 98.742188 138.964844 98.523438 139.359375 98.238281 C 139.753906 97.953125 140.097656 97.613281 140.382812 97.222656 C 140.667969 96.828125 140.890625 96.398438 141.039062 95.9375 C 141.191406 95.472656 141.265625 95 141.269531 94.511719 C 141.265625 94.285156 141.25 94.0625 141.21875 93.839844 L 150.246094 90.1875 C 150.410156 90.375 150.59375 90.539062 150.796875 90.679688 C 151 90.824219 151.214844 90.941406 151.441406 91.035156 C 151.671875 91.128906 151.90625 91.199219 152.152344 91.238281 C 152.394531 91.277344 152.640625 91.289062 152.886719 91.273438 C 153.132812 91.257812 153.375 91.210938 153.613281 91.140625 C 153.847656 91.070312 154.074219 90.972656 154.289062 90.847656 C 154.503906 90.726562 154.703125 90.578125 154.882812 90.410156 C 155.0625 90.242188 155.222656 90.054688 155.363281 89.851562 L 168.769531 93.3125 C 168.769531 93.371094 168.769531 93.429688 168.769531 93.488281 C 168.769531 93.894531 168.816406 94.296875 168.914062 94.695312 C 169.015625 95.089844 169.15625 95.46875 169.347656 95.832031 C 169.539062 96.191406 169.769531 96.527344 170.039062 96.832031 C 170.3125 97.136719 170.617188 97.40625 170.953125 97.636719 C 171.289062 97.867188 171.648438 98.054688 172.03125 98.199219 C 172.414062 98.34375 172.808594 98.4375 173.210938 98.484375 C 173.617188 98.535156 174.023438 98.53125 174.429688 98.480469 C 174.835938 98.429688 175.226562 98.332031 175.609375 98.183594 C 175.988281 98.039062 176.347656 97.847656 176.683594 97.613281 C 177.015625 97.378906 177.320312 97.109375 177.589844 96.800781 C 177.859375 96.496094 178.085938 96.160156 178.273438 95.796875 C 178.460938 95.433594 178.601562 95.054688 178.695312 94.65625 C 178.792969 94.261719 178.835938 93.855469 178.835938 93.449219 C 178.832031 93.039062 178.78125 92.636719 178.679688 92.242188 C 178.578125 91.847656 178.429688 91.46875 178.238281 91.109375 C 178.042969 90.75 177.8125 90.417969 177.539062 90.113281 C 177.265625 89.8125 176.957031 89.546875 176.621094 89.316406 C 176.28125 89.089844 175.921875 88.902344 175.535156 88.761719 C 175.152344 88.621094 174.757812 88.527344 174.351562 88.484375 C 173.945312 88.441406 173.542969 88.445312 173.136719 88.5 C 172.730469 88.550781 172.339844 88.652344 171.960938 88.804688 C 171.578125 88.953125 171.222656 89.144531 170.890625 89.382812 C 170.558594 89.617188 170.257812 89.890625 169.988281 90.199219 C 169.722656 90.511719 169.496094 90.847656 169.3125 91.210938 L 155.90625 87.75 C 155.871094 87.332031 155.757812 86.9375 155.570312 86.5625 C 155.378906 86.191406 155.128906 85.863281 154.8125 85.589844 C 154.5 85.3125 154.144531 85.105469 153.75 84.96875 C 153.355469 84.828125 152.949219 84.769531 152.53125 84.789062 C 152.113281 84.804688 151.714844 84.902344 151.332031 85.074219 C 150.953125 85.25 150.617188 85.488281 150.328125 85.789062 C 150.039062 86.09375 149.820312 86.4375 149.664062 86.828125 C 149.511719 87.214844 149.433594 87.621094 149.433594 88.039062 L 149.433594 88.171875 L 140.40625 91.824219 C 140.121094 91.429688 139.78125 91.085938 139.390625 90.796875 C 138.996094 90.507812 138.566406 90.289062 138.105469 90.136719 C 137.640625 89.984375 137.167969 89.90625 136.679688 89.90625 C 136.191406 89.902344 135.71875 89.976562 135.253906 90.128906 C 134.789062 90.277344 134.359375 90.492188 133.964844 90.78125 C 133.570312 91.066406 133.230469 91.40625 132.941406 91.800781 C 132.65625 92.191406 132.4375 92.621094 132.285156 93.085938 C 132.132812 93.546875 132.058594 94.023438 132.058594 94.511719 C 132.058594 94.734375 132.074219 94.957031 132.105469 95.175781 L 122.191406 99.167969 C 121.851562 98.972656 121.492188 98.84375 121.109375 98.78125 C 120.726562 98.714844 120.339844 98.71875 119.960938 98.792969 C 119.578125 98.863281 119.21875 99.003906 118.886719 99.203125 C 118.550781 99.40625 118.265625 99.660156 118.023438 99.964844 C 117.78125 100.269531 117.601562 100.609375 117.480469 100.980469 C 117.363281 101.347656 117.308594 101.730469 117.328125 102.117188 C 117.34375 102.507812 117.429688 102.882812 117.578125 103.238281 C 117.730469 103.597656 117.941406 103.921875 118.207031 104.203125 C 118.476562 104.488281 118.785156 104.714844 119.132812 104.886719 C 119.480469 105.058594 119.851562 105.164062 120.238281 105.203125 C 120.625 105.242188 121.007812 105.214844 121.382812 105.117188 C 121.761719 105.019531 122.109375 104.859375 122.429688 104.632812 L 133.882812 117.605469 C 133.515625 118.125 133.273438 118.695312 133.148438 119.316406 L 123.027344 122.628906 C 122.867188 122.457031 122.695312 122.304688 122.503906 122.167969 C 122.3125 122.03125 122.105469 121.917969 121.890625 121.828125 C 121.675781 121.738281 121.449219 121.671875 121.21875 121.628906 C 120.988281 121.585938 120.757812 121.570312 120.523438 121.578125 C 120.289062 121.585938 120.058594 121.621094 119.832031 121.679688 C 119.601562 121.734375 119.386719 121.820312 119.175781 121.925781 C 118.964844 122.03125 118.769531 122.15625 118.589844 122.304688 C 118.40625 122.453125 118.242188 122.621094 118.097656 122.804688 L 110.496094 120.207031 C 110.496094 120.046875 110.519531 119.875 110.519531 119.707031 C 110.519531 119.316406 110.472656 118.933594 110.382812 118.554688 C 110.289062 118.175781 110.152344 117.8125 109.976562 117.46875 C 109.796875 117.121094 109.578125 116.800781 109.324219 116.507812 C 109.070312 116.214844 108.78125 115.953125 108.464844 115.730469 C 108.148438 115.503906 107.808594 115.320312 107.445312 115.175781 C 107.085938 115.03125 106.710938 114.933594 106.324219 114.878906 C 105.941406 114.824219 105.554688 114.816406 105.164062 114.855469 C 104.777344 114.894531 104.402344 114.976562 104.035156 115.109375 C 103.667969 115.238281 103.320312 115.40625 102.992188 115.621094 C 102.667969 115.832031 102.371094 116.082031 102.101562 116.363281 C 101.835938 116.648438 101.605469 116.957031 101.414062 117.296875 C 101.222656 117.636719 101.074219 117.992188 100.964844 118.367188 C 100.859375 118.742188 100.796875 119.121094 100.785156 119.511719 C 100.769531 119.902344 100.800781 120.285156 100.875 120.667969 C 100.953125 121.050781 101.074219 121.414062 101.242188 121.769531 C 101.40625 122.121094 101.609375 122.449219 101.855469 122.753906 C 102.097656 123.054688 102.375 123.324219 102.683594 123.5625 C 102.992188 123.800781 103.324219 123.996094 103.679688 124.15625 C 104.039062 124.3125 104.40625 124.425781 104.789062 124.492188 C 105.171875 124.5625 105.558594 124.585938 105.949219 124.5625 C 106.335938 124.535156 106.714844 124.46875 107.089844 124.351562 C 107.460938 124.238281 107.8125 124.078125 108.148438 123.878906 C 108.480469 123.679688 108.789062 123.445312 109.066406 123.171875 C 109.34375 122.898438 109.582031 122.59375 109.789062 122.265625 L 117.394531 124.863281 C 117.394531 125.054688 117.414062 125.238281 117.449219 125.425781 L 95.058594 138.527344 C 94.785156 138.238281 94.484375 137.984375 94.152344 137.769531 C 93.820312 137.554688 93.46875 137.382812 93.09375 137.253906 C 92.71875 137.128906 92.335938 137.046875 91.941406 137.011719 C 91.546875 136.976562 91.15625 136.988281 90.765625 137.050781 C 90.375 137.109375 89.996094 137.21875 89.632812 137.371094 C 89.265625 137.523438 88.925781 137.71875 88.609375 137.957031 C 88.292969 138.191406 88.007812 138.464844 87.757812 138.769531 C 87.507812 139.078125 87.296875 139.40625 87.125 139.765625 C 86.957031 140.121094 86.832031 140.496094 86.753906 140.882812 C 86.671875 141.269531 86.644531 141.660156 86.660156 142.058594 C 86.675781 142.453125 86.738281 142.839844 86.851562 143.21875 C 86.960938 143.597656 87.117188 143.960938 87.316406 144.300781 C 87.515625 144.640625 87.753906 144.957031 88.03125 145.238281 C 88.304688 145.523438 88.613281 145.769531 88.949219 145.976562 C 89.285156 146.1875 89.640625 146.351562 90.015625 146.472656 C 90.390625 146.597656 90.777344 146.671875 91.171875 146.699219 C 91.566406 146.726562 91.957031 146.707031 92.347656 146.640625 C 92.738281 146.570312 93.113281 146.457031 93.476562 146.296875 C 93.839844 146.136719 94.175781 145.9375 94.488281 145.695312 C 94.800781 145.453125 95.082031 145.175781 95.324219 144.867188 C 95.570312 144.554688 95.777344 144.222656 95.9375 143.859375 C 96.101562 143.5 96.21875 143.125 96.292969 142.738281 C 96.363281 142.347656 96.390625 141.957031 96.367188 141.5625 C 96.34375 141.167969 96.269531 140.78125 96.152344 140.402344 L 116.855469 128.285156 L 99.335938 153.035156 C 99.015625 152.902344 98.683594 152.808594 98.34375 152.746094 C 98.003906 152.683594 97.660156 152.660156 97.316406 152.671875 C 96.96875 152.683594 96.628906 152.730469 96.292969 152.816406 C 95.957031 152.898438 95.636719 153.019531 95.324219 153.171875 C 95.015625 153.324219 94.726562 153.511719 94.453125 153.726562 C 94.183594 153.941406 93.9375 154.183594 93.71875 154.449219 C 93.5 154.71875 93.3125 155.003906 93.15625 155.3125 C 92.996094 155.621094 92.875 155.941406 92.785156 156.277344 C 92.695312 156.609375 92.640625 156.949219 92.625 157.296875 C 92.609375 157.640625 92.628906 157.984375 92.683594 158.324219 C 92.742188 158.667969 92.832031 159 92.960938 159.320312 C 93.089844 159.640625 93.25 159.945312 93.441406 160.234375 C 93.632812 160.523438 93.855469 160.785156 94.101562 161.027344 C 94.351562 161.265625 94.621094 161.476562 94.917969 161.660156 C 95.210938 161.84375 95.519531 161.992188 95.84375 162.109375 C 96.171875 162.226562 96.503906 162.304688 96.847656 162.351562 C 97.191406 162.394531 97.535156 162.402344 97.878906 162.375 C 98.226562 162.347656 98.5625 162.28125 98.894531 162.183594 C 99.226562 162.082031 99.542969 161.949219 99.84375 161.78125 C 100.144531 161.613281 100.425781 161.414062 100.6875 161.183594 C 100.949219 160.957031 101.179688 160.703125 101.386719 160.425781 C 101.59375 160.148438 101.765625 159.851562 101.910156 159.539062 C 102.050781 159.222656 102.160156 158.894531 102.234375 158.558594 C 102.308594 158.21875 102.34375 157.878906 102.34375 157.53125 C 102.34375 157.476562 102.34375 157.425781 102.34375 157.371094 L 115.140625 153.988281 C 115.523438 154.859375 116.058594 155.621094 116.746094 156.273438 C 117.433594 156.929688 118.222656 157.425781 119.109375 157.765625 L 113.734375 183.003906 C 112.484375 183.011719 111.390625 183.433594 110.457031 184.261719 L 102.773438 178.636719 C 102.9375 178.261719 103.054688 177.871094 103.125 177.464844 C 103.195312 177.0625 103.214844 176.65625 103.183594 176.246094 C 103.15625 175.835938 103.078125 175.433594 102.949219 175.042969 C 102.820312 174.65625 102.648438 174.285156 102.429688 173.9375 C 102.210938 173.589844 101.953125 173.273438 101.65625 172.988281 C 101.359375 172.703125 101.035156 172.457031 100.679688 172.253906 C 100.324219 172.046875 99.949219 171.886719 99.554688 171.773438 C 99.160156 171.660156 98.753906 171.597656 98.34375 171.582031 C 97.933594 171.570312 97.527344 171.605469 97.125 171.6875 C 96.726562 171.773438 96.339844 171.90625 95.96875 172.085938 C 95.601562 172.265625 95.257812 172.484375 94.941406 172.75 C 94.625 173.011719 94.347656 173.308594 94.105469 173.640625 C 93.863281 173.972656 93.664062 174.328125 93.507812 174.707031 C 93.351562 175.089844 93.246094 175.480469 93.183594 175.886719 C 93.125 176.292969 93.117188 176.703125 93.15625 177.109375 C 93.199219 177.519531 93.289062 177.917969 93.425781 178.304688 C 93.5625 178.691406 93.746094 179.054688 93.972656 179.398438 C 94.199219 179.738281 94.464844 180.050781 94.769531 180.328125 C 95.070312 180.605469 95.402344 180.839844 95.765625 181.035156 C 96.125 181.234375 96.503906 181.382812 96.902344 181.484375 C 97.300781 181.589844 97.703125 181.640625 98.117188 181.644531 C 98.527344 181.648438 98.929688 181.605469 99.332031 181.507812 C 99.730469 181.414062 100.113281 181.273438 100.476562 181.082031 C 100.84375 180.894531 101.179688 180.664062 101.488281 180.394531 L 109.167969 186.011719 C 108.644531 187.214844 108.59375 188.433594 109.015625 189.675781 L 89.863281 201.402344 C 89.578125 201.105469 89.261719 200.847656 88.914062 200.628906 C 88.566406 200.414062 88.199219 200.238281 87.808594 200.113281 C 87.417969 199.984375 87.019531 199.90625 86.609375 199.875 C 86.199219 199.847656 85.792969 199.867188 85.386719 199.9375 C 84.984375 200.007812 84.59375 200.125 84.21875 200.289062 C 83.84375 200.453125 83.492188 200.664062 83.167969 200.914062 C 82.84375 201.164062 82.554688 201.453125 82.300781 201.773438 C 82.042969 202.09375 81.832031 202.441406 81.664062 202.816406 C 81.496094 203.191406 81.371094 203.578125 81.296875 203.984375 C 81.222656 204.386719 81.199219 204.792969 81.226562 205.203125 C 81.25 205.613281 81.324219 206.011719 81.449219 206.402344 C 81.570312 206.796875 81.742188 207.167969 81.957031 207.515625 C 82.167969 207.867188 82.421875 208.183594 82.714844 208.472656 C 83.007812 208.761719 83.328125 209.007812 83.683594 209.21875 C 84.035156 209.429688 84.410156 209.589844 84.800781 209.707031 C 85.195312 209.828125 85.597656 209.894531 86.007812 209.914062 C 86.417969 209.933594 86.824219 209.902344 87.226562 209.824219 C 87.628906 209.742188 88.015625 209.613281 88.386719 209.441406 C 88.757812 209.265625 89.101562 209.046875 89.421875 208.789062 C 89.738281 208.53125 90.019531 208.234375 90.265625 207.90625 C 90.511719 207.578125 90.714844 207.226562 90.875 206.847656 C 91.035156 206.46875 91.148438 206.078125 91.210938 205.671875 C 91.273438 205.269531 91.289062 204.859375 91.253906 204.453125 C 91.21875 204.042969 91.132812 203.644531 91 203.257812 L 110.15625 191.53125 C 110.628906 192.023438 111.179688 192.40625 111.808594 192.671875 C 112.441406 192.941406 113.097656 193.074219 113.78125 193.070312 C 114.371094 193.070312 114.941406 192.972656 115.492188 192.773438 L 119.199219 199.410156 C 118.894531 199.683594 118.628906 199.988281 118.398438 200.324219 C 118.171875 200.660156 117.984375 201.019531 117.84375 201.402344 C 117.703125 201.78125 117.609375 202.175781 117.566406 202.578125 C 117.519531 202.984375 117.523438 203.386719 117.578125 203.792969 C 117.632812 204.195312 117.734375 204.585938 117.882812 204.964844 C 118.03125 205.34375 118.226562 205.699219 118.460938 206.03125 C 118.699219 206.359375 118.972656 206.660156 119.28125 206.921875 C 119.589844 207.1875 119.925781 207.410156 120.289062 207.59375 C 120.652344 207.777344 121.035156 207.910156 121.429688 208 C 121.828125 208.089844 122.230469 208.128906 122.636719 208.121094 C 123.042969 208.113281 123.445312 208.054688 123.835938 207.945312 C 124.230469 207.839844 124.605469 207.6875 124.957031 207.488281 C 125.3125 207.289062 125.640625 207.050781 125.9375 206.773438 C 126.234375 206.496094 126.492188 206.183594 126.714844 205.84375 C 126.933594 205.5 127.113281 205.136719 127.246094 204.753906 C 127.375 204.367188 127.460938 203.972656 127.496094 203.566406 C 127.53125 203.160156 127.519531 202.757812 127.453125 202.355469 C 127.390625 201.953125 127.28125 201.566406 127.121094 201.191406 C 126.964844 200.816406 126.761719 200.464844 126.519531 200.140625 C 126.273438 199.8125 125.996094 199.523438 125.679688 199.265625 C 125.363281 199.007812 125.023438 198.792969 124.652344 198.617188 C 124.285156 198.445312 123.902344 198.320312 123.503906 198.238281 C 123.105469 198.160156 122.703125 198.128906 122.292969 198.148438 C 121.886719 198.164062 121.488281 198.234375 121.101562 198.347656 L 117.324219 191.609375 C 117.613281 191.320312 117.863281 191.003906 118.074219 190.65625 C 118.285156 190.308594 118.453125 189.941406 118.574219 189.550781 C 118.695312 189.164062 118.769531 188.765625 118.796875 188.363281 C 118.820312 187.957031 118.800781 187.550781 118.726562 187.152344 C 118.65625 186.75 118.535156 186.367188 118.371094 185.992188 C 118.207031 185.621094 118 185.277344 117.75 184.953125 C 117.5 184.632812 117.214844 184.347656 116.894531 184.09375 C 116.578125 183.839844 116.234375 183.628906 115.863281 183.460938 L 121.234375 158.222656 C 121.363281 158.222656 121.496094 158.222656 121.625 158.222656 C 122.0625 158.222656 122.5 158.183594 122.933594 158.101562 L 127.796875 171.84375 L 135.5625 195.679688 C 134.980469 196.078125 134.535156 196.597656 134.234375 197.238281 C 133.933594 197.882812 133.820312 198.554688 133.886719 199.257812 C 133.953125 199.964844 134.195312 200.601562 134.609375 201.175781 C 135.027344 201.746094 135.558594 202.175781 136.207031 202.457031 L 131.324219 215.464844 C 130.949219 215.394531 130.570312 215.359375 130.1875 215.359375 C 129.804688 215.363281 129.425781 215.398438 129.050781 215.46875 C 128.671875 215.539062 128.308594 215.644531 127.949219 215.78125 C 127.59375 215.917969 127.253906 216.089844 126.925781 216.289062 C 126.601562 216.488281 126.296875 216.71875 126.011719 216.976562 C 125.730469 217.230469 125.472656 217.511719 125.238281 217.816406 C 125.007812 218.121094 124.804688 218.445312 124.632812 218.785156 C 124.460938 219.125 124.320312 219.480469 124.210938 219.847656 L 114.945312 218.855469 C 114.863281 218.390625 114.699219 217.957031 114.457031 217.550781 C 114.214844 217.144531 113.910156 216.796875 113.539062 216.503906 C 113.171875 216.207031 112.761719 215.988281 112.3125 215.84375 C 111.863281 215.699219 111.40625 215.636719 110.933594 215.660156 C 110.460938 215.683594 110.011719 215.789062 109.578125 215.976562 C 109.144531 216.164062 108.757812 216.421875 108.417969 216.75 C 108.082031 217.078125 107.808594 217.453125 107.609375 217.882812 C 107.40625 218.308594 107.285156 218.757812 107.25 219.226562 C 107.210938 219.695312 107.257812 220.160156 107.386719 220.613281 C 107.515625 221.066406 107.722656 221.480469 108.003906 221.859375 C 108.285156 222.238281 108.625 222.554688 109.019531 222.8125 C 109.417969 223.066406 109.847656 223.242188 110.308594 223.339844 L 112.398438 251.515625 C 112.003906 251.636719 111.628906 251.796875 111.277344 252.007812 C 110.921875 252.21875 110.601562 252.464844 110.308594 252.753906 C 110.015625 253.042969 109.761719 253.363281 109.546875 253.714844 C 109.332031 254.066406 109.164062 254.4375 109.039062 254.828125 C 108.917969 255.21875 108.84375 255.621094 108.816406 256.03125 C 108.792969 256.441406 108.816406 256.847656 108.890625 257.253906 C 108.964844 257.65625 109.085938 258.046875 109.257812 258.421875 C 109.425781 258.792969 109.640625 259.144531 109.894531 259.464844 C 110.148438 259.789062 110.441406 260.074219 110.765625 260.324219 C 111.089844 260.578125 111.441406 260.785156 111.816406 260.949219 C 112.191406 261.117188 112.582031 261.234375 112.988281 261.304688 C 113.394531 261.371094 113.800781 261.390625 114.210938 261.363281 C 114.621094 261.332031 115.019531 261.253906 115.410156 261.125 C 115.800781 260.996094 116.171875 260.824219 116.519531 260.605469 C 116.867188 260.386719 117.183594 260.128906 117.46875 259.835938 C 117.753906 259.539062 118 259.210938 118.207031 258.855469 C 118.410156 258.5 118.570312 258.125 118.683594 257.730469 C 118.796875 257.335938 118.859375 256.929688 118.875 256.519531 C 118.890625 256.109375 118.855469 255.703125 118.769531 255.300781 C 118.683594 254.898438 118.554688 254.511719 118.375 254.144531 C 118.195312 253.773438 117.972656 253.429688 117.710938 253.117188 C 117.445312 252.800781 117.148438 252.519531 116.816406 252.277344 C 116.488281 252.035156 116.128906 251.835938 115.75 251.679688 C 115.371094 251.523438 114.976562 251.417969 114.570312 251.359375 L 112.484375 223.179688 C 113.542969 222.78125 114.285156 222.0625 114.714844 221.015625 L 123.980469 222.011719 C 124 222.277344 124.035156 222.539062 124.085938 222.800781 C 124.140625 223.0625 124.207031 223.320312 124.292969 223.574219 C 124.378906 223.828125 124.480469 224.074219 124.597656 224.3125 C 124.714844 224.554688 124.847656 224.785156 124.992188 225.007812 C 125.140625 225.230469 125.300781 225.441406 125.472656 225.644531 C 125.648438 225.847656 125.832031 226.039062 126.03125 226.214844 C 126.230469 226.394531 126.441406 226.558594 126.660156 226.710938 C 126.878906 226.863281 127.109375 227 127.34375 227.121094 C 127.582031 227.242188 127.828125 227.347656 128.078125 227.4375 C 128.328125 227.53125 128.582031 227.605469 128.84375 227.660156 C 129.105469 227.71875 129.367188 227.761719 129.632812 227.785156 C 129.898438 227.808594 130.164062 227.816406 130.433594 227.804688 C 130.699219 227.792969 130.964844 227.765625 131.226562 227.722656 C 131.488281 227.679688 131.75 227.617188 132.003906 227.539062 C 132.257812 227.460938 132.507812 227.367188 132.753906 227.257812 C 132.996094 227.148438 133.230469 227.023438 133.457031 226.882812 C 133.683594 226.742188 133.902344 226.589844 134.109375 226.421875 C 134.316406 226.253906 134.511719 226.074219 134.695312 225.878906 C 134.878906 225.6875 135.050781 225.484375 135.210938 225.265625 C 135.367188 225.050781 135.511719 224.828125 135.640625 224.59375 C 135.769531 224.359375 135.882812 224.121094 135.980469 223.871094 C 136.078125 223.625 136.160156 223.371094 136.226562 223.109375 C 136.289062 222.851562 136.339844 222.589844 136.371094 222.324219 C 136.402344 222.0625 136.417969 221.796875 136.414062 221.527344 C 136.414062 221.261719 136.390625 220.996094 136.355469 220.730469 C 136.320312 220.46875 136.265625 220.207031 136.195312 219.949219 C 136.125 219.691406 136.039062 219.441406 135.9375 219.195312 C 135.835938 218.945312 135.714844 218.707031 135.582031 218.476562 C 135.449219 218.246094 135.300781 218.023438 135.140625 217.8125 C 134.980469 217.601562 134.804688 217.398438 134.617188 217.210938 C 134.429688 217.019531 134.230469 216.84375 134.019531 216.679688 C 133.808594 216.515625 133.589844 216.363281 133.359375 216.230469 L 138.429688 202.71875 C 138.761719 202.660156 139.082031 202.558594 139.390625 202.417969 C 139.695312 202.277344 139.976562 202.097656 140.238281 201.882812 C 140.496094 201.667969 140.726562 201.421875 140.921875 201.144531 C 141.117188 200.871094 141.273438 200.574219 141.394531 200.257812 C 141.511719 199.941406 141.589844 199.617188 141.621094 199.28125 C 141.65625 198.945312 141.648438 198.609375 141.59375 198.277344 C 141.539062 197.941406 141.445312 197.621094 141.308594 197.3125 C 141.171875 197.003906 140.996094 196.71875 140.785156 196.457031 L 145.363281 183.847656 C 146 184.007812 146.644531 184.105469 147.296875 184.144531 L 150.054688 218.503906 C 147.308594 219.152344 145.265625 221.832031 145.265625 224.566406 C 145.265625 227.300781 146.734375 229.21875 148.863281 230.207031 L 135.167969 272.4375 L 134.960938 272.4375 C 134.554688 272.4375 134.152344 272.484375 133.757812 272.582031 C 133.363281 272.683594 132.984375 272.824219 132.625 273.015625 C 132.261719 273.207031 131.929688 273.4375 131.628906 273.707031 C 131.324219 273.976562 131.054688 274.28125 130.824219 274.617188 C 130.59375 274.953125 130.40625 275.3125 130.265625 275.691406 C 130.121094 276.074219 130.023438 276.464844 129.976562 276.871094 C 129.929688 277.273438 129.929688 277.679688 129.980469 278.082031 C 130.03125 278.488281 130.128906 278.878906 130.273438 279.261719 C 130.421875 279.640625 130.609375 279.996094 130.84375 280.332031 C 131.074219 280.667969 131.34375 280.96875 131.648438 281.238281 C 131.957031 281.503906 132.289062 281.734375 132.652344 281.921875 C 133.011719 282.109375 133.390625 282.25 133.785156 282.347656 C 134.183594 282.441406 134.585938 282.488281 134.992188 282.488281 C 135.398438 282.484375 135.800781 282.433594 136.195312 282.335938 C 136.589844 282.234375 136.96875 282.089844 137.328125 281.898438 C 137.6875 281.707031 138.019531 281.476562 138.320312 281.207031 C 138.625 280.933594 138.890625 280.628906 139.121094 280.292969 C 139.351562 279.957031 139.535156 279.597656 139.679688 279.214844 C 139.820312 278.835938 139.914062 278.441406 139.960938 278.035156 C 140.007812 277.632812 140.003906 277.226562 139.953125 276.824219 C 139.902344 276.417969 139.800781 276.027344 139.65625 275.648438 C 139.507812 275.269531 139.316406 274.910156 139.085938 274.578125 C 138.851562 274.246094 138.582031 273.945312 138.273438 273.675781 C 137.96875 273.40625 137.632812 273.179688 137.269531 272.996094 L 150.96875 230.765625 C 151.136719 230.78125 149.679688 230.789062 151.484375 230.789062 C 153.292969 230.789062 157.710938 227.320312 157.710938 224.570312 C 157.710938 221.820312 156.703125 220.675781 155.160156 219.546875 L 157.535156 207.902344 C 158.222656 208.167969 158.933594 208.324219 159.667969 208.371094 C 160.40625 208.421875 161.132812 208.355469 161.847656 208.183594 C 162.5625 208.007812 163.238281 207.730469 163.867188 207.351562 C 164.5 206.96875 165.058594 206.503906 165.546875 205.953125 C 166.035156 205.398438 166.429688 204.785156 166.730469 204.113281 C 167.03125 203.441406 167.222656 202.738281 167.308594 202.007812 C 167.394531 201.273438 167.367188 200.546875 167.230469 199.824219 C 167.09375 199.097656 166.851562 198.414062 166.503906 197.761719 L 190.03125 179.261719 C 190.09375 179.320312 190.160156 179.375 190.230469 179.433594 L 179.773438 197.882812 C 179.265625 197.722656 178.742188 197.644531 178.210938 197.644531 C 177.683594 197.644531 177.167969 197.722656 176.664062 197.878906 C 176.160156 198.039062 175.691406 198.265625 175.257812 198.566406 C 174.824219 198.867188 174.445312 199.222656 174.121094 199.636719 C 173.792969 200.054688 173.539062 200.507812 173.351562 201 C 173.164062 201.492188 173.054688 202.003906 173.023438 202.53125 C 172.992188 203.054688 173.039062 203.574219 173.164062 204.085938 C 173.289062 204.601562 173.488281 205.082031 173.761719 205.53125 C 174.035156 205.984375 174.367188 206.386719 174.761719 206.734375 L 165.886719 232.636719 C 165.398438 232.484375 166.035156 232.398438 164.328125 232.398438 C 162.617188 232.398438 159.125 234.726562 159.125 237.601562 C 159.125 237.941406 159.160156 238.28125 159.226562 238.617188 C 159.292969 238.949219 159.390625 239.277344 159.519531 239.59375 C 159.652344 239.90625 159.8125 240.207031 160.003906 240.492188 C 160.191406 240.773438 160.40625 241.039062 160.648438 241.28125 C 160.890625 241.519531 161.152344 241.738281 161.4375 241.925781 C 161.722656 242.117188 162.019531 242.277344 162.335938 242.40625 C 162.652344 242.539062 162.976562 242.636719 163.3125 242.703125 C 163.648438 242.769531 163.984375 242.804688 164.328125 242.804688 C 167.199219 242.804688 169.527344 239.8125 169.527344 237.601562 C 169.527344 235.390625 168.855469 234.667969 167.78125 233.710938 L 176.652344 207.808594 L 176.925781 207.886719 L 182.125 222.722656 C 181.707031 222.816406 181.316406 222.976562 180.953125 223.207031 C 180.589844 223.4375 180.273438 223.722656 180.011719 224.0625 C 179.746094 224.402344 179.546875 224.777344 179.414062 225.183594 C 179.277344 225.59375 179.21875 226.011719 179.230469 226.441406 C 179.230469 228.398438 180.949219 230.277344 183.070312 230.277344 C 185.1875 230.277344 186.90625 228.34375 186.90625 226.441406 C 186.90625 224.539062 185.8125 223.316406 184.292969 222.804688 L 179.09375 207.972656 C 179.691406 207.867188 180.253906 207.664062 180.78125 207.363281 C 181.308594 207.0625 181.765625 206.683594 182.160156 206.222656 C 182.554688 205.761719 182.859375 205.246094 183.070312 204.679688 C 183.285156 204.113281 183.398438 203.523438 183.40625 202.917969 L 207.171875 198.167969 C 207.3125 198.4375 207.484375 198.6875 207.6875 198.914062 C 207.890625 199.144531 208.117188 199.34375 208.367188 199.519531 C 208.617188 199.695312 208.882812 199.839844 209.167969 199.949219 C 209.453125 200.058594 209.746094 200.136719 210.050781 200.175781 C 210.351562 200.21875 210.65625 200.222656 210.960938 200.191406 C 211.261719 200.160156 211.558594 200.09375 211.847656 199.988281 C 212.132812 199.886719 212.40625 199.753906 212.660156 199.585938 C 212.917969 199.417969 213.148438 199.222656 213.359375 199 C 213.566406 198.777344 213.746094 198.535156 213.898438 198.269531 C 214.046875 198.003906 214.164062 197.722656 214.25 197.429688 C 214.332031 197.136719 214.382812 196.835938 214.394531 196.53125 C 214.40625 196.226562 214.382812 195.921875 214.324219 195.625 C 214.261719 195.324219 214.167969 195.035156 214.039062 194.757812 C 213.910156 194.480469 213.75 194.222656 213.5625 193.984375 C 213.371094 193.746094 213.15625 193.535156 212.914062 193.347656 C 212.671875 193.160156 212.414062 193.003906 212.132812 192.878906 C 211.855469 192.753906 211.566406 192.660156 211.265625 192.605469 C 210.964844 192.550781 210.664062 192.53125 210.359375 192.546875 C 210.050781 192.5625 209.753906 192.613281 209.460938 192.703125 C 209.167969 192.789062 208.890625 192.910156 208.625 193.0625 C 208.363281 193.21875 208.121094 193.402344 207.902344 193.613281 C 207.679688 193.824219 207.488281 194.058594 207.324219 194.316406 C 207.160156 194.574219 207.03125 194.847656 206.929688 195.136719 C 206.832031 195.425781 206.769531 195.722656 206.742188 196.027344 L 182.96875 200.78125 C 182.660156 200.074219 182.21875 199.46875 181.644531 198.957031 L 192.097656 180.507812 C 192.515625 180.65625 192.945312 180.757812 193.382812 180.816406 C 193.820312 180.875 194.257812 180.886719 194.699219 180.851562 C 195.140625 180.816406 195.574219 180.738281 195.996094 180.609375 C 196.421875 180.484375 196.828125 180.316406 197.214844 180.105469 C 197.605469 179.894531 197.96875 179.648438 198.304688 179.359375 C 198.640625 179.074219 198.941406 178.753906 199.210938 178.402344 C 199.480469 178.050781 199.710938 177.675781 199.898438 177.277344 C 200.089844 176.878906 200.238281 176.464844 200.339844 176.035156 C 200.441406 175.605469 200.5 175.167969 200.511719 174.726562 C 200.523438 174.285156 200.488281 173.847656 200.40625 173.410156 C 200.328125 172.976562 200.203125 172.554688 200.03125 172.148438 C 199.863281 171.738281 199.652344 171.351562 199.402344 170.988281 C 199.152344 170.625 198.867188 170.289062 198.546875 169.984375 C 198.222656 169.683594 197.875 169.414062 197.5 169.183594 C 197.121094 168.953125 196.722656 168.765625 196.308594 168.617188 C 195.890625 168.46875 195.464844 168.367188 195.023438 168.308594 L 194.214844 150.058594 C 195.269531 149.824219 196.199219 149.347656 197.007812 148.632812 L 215.300781 163.328125 C 215.171875 163.558594 215.0625 163.792969 214.964844 164.035156 C 214.867188 164.277344 214.785156 164.523438 214.71875 164.773438 C 214.652344 165.027344 214.601562 165.28125 214.566406 165.539062 C 214.53125 165.796875 214.511719 166.058594 214.511719 166.316406 C 214.507812 166.578125 214.519531 166.839844 214.550781 167.097656 C 214.582031 167.355469 214.625 167.613281 214.6875 167.867188 C 214.746094 168.117188 214.824219 168.367188 214.914062 168.609375 C 215.007812 168.855469 215.113281 169.09375 215.234375 169.324219 C 215.355469 169.554688 215.492188 169.773438 215.640625 169.988281 C 215.789062 170.203125 215.949219 170.40625 216.125 170.601562 C 216.296875 170.792969 216.484375 170.976562 216.679688 171.148438 C 216.878906 171.320312 217.082031 171.476562 217.300781 171.621094 C 217.515625 171.769531 217.742188 171.898438 217.972656 172.015625 C 218.207031 172.132812 218.445312 172.238281 218.6875 172.324219 C 218.933594 172.414062 219.183594 172.484375 219.4375 172.542969 C 219.691406 172.601562 219.949219 172.640625 220.207031 172.667969 C 220.46875 172.691406 220.726562 172.703125 220.988281 172.695312 C 221.25 172.6875 221.507812 172.664062 221.765625 172.625 C 222.023438 172.585938 222.277344 172.53125 222.527344 172.460938 C 222.777344 172.390625 223.023438 172.304688 223.265625 172.203125 C 223.503906 172.105469 223.738281 171.988281 223.964844 171.859375 C 224.191406 171.730469 224.40625 171.585938 224.617188 171.429688 C 224.824219 171.273438 225.019531 171.105469 225.207031 170.921875 C 225.394531 170.742188 225.570312 170.550781 225.734375 170.347656 C 225.898438 170.144531 226.050781 169.933594 226.1875 169.710938 C 226.324219 169.488281 226.445312 169.261719 226.554688 169.023438 C 226.664062 168.785156 226.757812 168.542969 226.835938 168.296875 C 226.914062 168.046875 226.980469 167.796875 227.027344 167.539062 C 227.074219 167.285156 227.105469 167.027344 227.121094 166.765625 C 227.136719 166.503906 227.136719 166.246094 227.121094 165.984375 C 227.105469 165.726562 227.070312 165.46875 227.023438 165.210938 C 226.976562 164.957031 226.910156 164.703125 226.832031 164.457031 C 226.75 164.207031 226.65625 163.964844 226.546875 163.730469 C 226.4375 163.492188 226.3125 163.261719 226.175781 163.042969 C 226.039062 162.820312 225.886719 162.609375 225.722656 162.40625 C 225.558594 162.207031 225.382812 162.015625 225.195312 161.832031 C 225.007812 161.652344 224.808594 161.484375 224.597656 161.328125 C 224.390625 161.171875 224.171875 161.03125 223.945312 160.902344 C 223.71875 160.773438 223.488281 160.65625 223.246094 160.558594 C 223.003906 160.457031 222.761719 160.371094 222.507812 160.304688 C 222.257812 160.234375 222.003906 160.179688 221.746094 160.140625 C 221.488281 160.105469 221.230469 160.082031 220.96875 160.074219 C 220.707031 160.070312 220.449219 160.078125 220.1875 160.105469 C 219.929688 160.132812 219.671875 160.171875 219.417969 160.230469 C 219.164062 160.289062 218.914062 160.363281 218.671875 160.453125 C 218.425781 160.539062 218.1875 160.644531 217.957031 160.761719 C 217.722656 160.878906 217.5 161.011719 217.285156 161.160156 C 217.066406 161.304688 216.863281 161.464844 216.664062 161.636719 L 198.402344 146.941406 C 198.621094 146.546875 198.792969 146.132812 198.921875 145.703125 C 199.050781 145.269531 199.132812 144.828125 199.167969 144.378906 C 199.203125 143.929688 199.191406 143.484375 199.128906 143.039062 C 199.066406 142.589844 198.960938 142.15625 198.804688 141.734375 C 198.652344 141.3125 198.453125 140.910156 198.210938 140.527344 C 197.972656 140.148438 197.695312 139.796875 197.378906 139.476562 C 197.0625 139.152344 196.714844 138.871094 196.339844 138.621094 C 195.964844 138.375 195.566406 138.171875 195.144531 138.007812 C 194.722656 137.847656 194.292969 137.734375 193.847656 137.664062 C 193.402344 137.59375 192.953125 137.574219 192.503906 137.601562 C 192.054688 137.628906 191.613281 137.703125 191.179688 137.824219 C 190.746094 137.945312 190.332031 138.109375 189.933594 138.320312 C 189.535156 138.53125 189.164062 138.78125 188.816406 139.070312 C 188.472656 139.363281 188.164062 139.683594 187.890625 140.042969 C 187.613281 140.398438 187.378906 140.78125 187.183594 141.1875 C 186.992188 141.59375 186.84375 142.015625 186.742188 142.453125 L 165.949219 141.265625 C 165.863281 139.828125 165.460938 138.488281 164.742188 137.238281 L 174.183594 130.203125 C 174.363281 130.371094 174.558594 130.527344 174.757812 130.671875 C 174.960938 130.816406 175.171875 130.949219 175.390625 131.066406 C 175.609375 131.1875 175.832031 131.289062 176.066406 131.378906 C 176.296875 131.472656 176.53125 131.546875 176.773438 131.605469 C 177.015625 131.667969 177.257812 131.714844 177.503906 131.742188 C 177.753906 131.773438 178 131.789062 178.25 131.789062 C 178.496094 131.789062 178.746094 131.773438 178.992188 131.742188 C 179.238281 131.707031 179.480469 131.660156 179.722656 131.601562 C 179.964844 131.539062 180.199219 131.460938 180.429688 131.371094 C 180.660156 131.277344 180.886719 131.171875 181.105469 131.050781 C 181.320312 130.933594 181.53125 130.800781 181.734375 130.652344 C 181.933594 130.507812 182.125 130.351562 182.308594 130.179688 C 182.488281 130.011719 182.660156 129.832031 182.816406 129.640625 C 182.976562 129.449219 183.125 129.246094 183.257812 129.039062 C 183.390625 128.828125 183.511719 128.613281 183.617188 128.386719 C 183.726562 128.164062 183.816406 127.933594 183.894531 127.695312 L 210.785156 131.421875 C 210.824219 131.792969 210.90625 132.152344 211.03125 132.503906 C 211.15625 132.851562 211.324219 133.183594 211.527344 133.492188 C 211.734375 133.804688 211.976562 134.085938 212.25 134.335938 C 212.523438 134.589844 212.824219 134.804688 213.152344 134.984375 C 213.480469 135.160156 213.824219 135.296875 214.183594 135.394531 C 214.542969 135.488281 214.910156 135.539062 215.28125 135.546875 C 215.65625 135.550781 216.023438 135.511719 216.386719 135.429688 C 216.75 135.347656 217.097656 135.222656 217.429688 135.054688 C 217.761719 134.886719 218.070312 134.679688 218.351562 134.4375 C 218.636719 134.195312 218.886719 133.921875 219.101562 133.617188 C 219.316406 133.316406 219.496094 132.992188 219.632812 132.644531 C 219.769531 132.296875 219.863281 131.941406 219.914062 131.570312 C 219.964844 131.203125 219.96875 130.832031 219.929688 130.460938 C 219.890625 130.089844 219.808594 129.730469 219.679688 129.378906 C 219.554688 129.03125 219.386719 128.699219 219.179688 128.390625 C 218.972656 128.082031 218.730469 127.800781 218.457031 127.550781 C 218.179688 127.296875 217.878906 127.085938 217.550781 126.90625 C 217.222656 126.730469 216.878906 126.59375 216.519531 126.5 C 216.160156 126.40625 215.792969 126.355469 215.417969 126.351562 C 215.046875 126.34375 214.679688 126.386719 214.316406 126.46875 C 213.953125 126.554688 213.605469 126.679688 213.273438 126.847656 C 212.941406 127.019531 212.636719 127.222656 212.351562 127.46875 C 212.070312 127.710938 211.820312 127.984375 211.605469 128.289062 C 211.390625 128.59375 211.214844 128.917969 211.078125 129.265625 L 184.195312 125.5625 C 184.15625 124.734375 183.953125 123.949219 183.589844 123.207031 L 196.765625 113.375 C 197.050781 113.613281 197.363281 113.808594 197.699219 113.972656 C 198.03125 114.132812 198.382812 114.25 198.746094 114.328125 C 199.113281 114.402344 199.480469 114.433594 199.851562 114.421875 C 200.222656 114.410156 200.589844 114.351562 200.945312 114.25 C 201.304688 114.148438 201.644531 114.003906 201.96875 113.820312 C 202.289062 113.632812 202.585938 113.414062 202.855469 113.15625 C 203.125 112.898438 203.359375 112.613281 203.558594 112.300781 C 203.761719 111.988281 203.917969 111.652344 204.039062 111.300781 C 204.15625 110.949219 204.234375 110.585938 204.265625 110.214844 C 204.296875 109.84375 204.28125 109.476562 204.222656 109.109375 C 204.164062 108.742188 204.0625 108.386719 203.917969 108.042969 C 203.773438 107.699219 203.589844 107.378906 203.367188 107.082031 C 203.144531 106.785156 202.890625 106.515625 202.601562 106.28125 C 202.3125 106.042969 202.003906 105.847656 201.667969 105.6875 C 201.332031 105.527344 200.980469 105.40625 200.617188 105.332031 C 200.25 105.257812 199.882812 105.226562 199.511719 105.242188 C 199.140625 105.253906 198.777344 105.3125 198.417969 105.417969 C 198.058594 105.519531 197.71875 105.664062 197.398438 105.847656 C 197.074219 106.035156 196.777344 106.253906 196.511719 106.511719 C 196.242188 106.769531 196.007812 107.054688 195.808594 107.371094 C 195.609375 107.683594 195.449219 108.019531 195.332031 108.371094 C 195.214844 108.722656 195.140625 109.085938 195.109375 109.457031 C 195.078125 109.828125 195.09375 110.195312 195.152344 110.5625 C 195.210938 110.929688 195.3125 111.285156 195.460938 111.628906 L 182.28125 121.460938 C 182 121.199219 181.695312 120.96875 181.371094 120.769531 C 181.046875 120.566406 180.703125 120.398438 180.34375 120.261719 C 179.988281 120.125 179.621094 120.027344 179.242188 119.960938 C 178.863281 119.894531 178.484375 119.867188 178.101562 119.875 C 177.71875 119.882812 177.339844 119.929688 176.964844 120.007812 C 176.589844 120.089844 176.226562 120.207031 175.875 120.359375 C 175.523438 120.507812 175.191406 120.691406 174.875 120.90625 C 174.558594 121.125 174.265625 121.367188 173.996094 121.640625 L 159.023438 111.449219 C 159.152344 111.097656 159.242188 110.738281 159.285156 110.371094 C 159.328125 110 159.328125 109.632812 159.28125 109.261719 C 159.234375 108.894531 159.144531 108.535156 159.011719 108.1875 C 158.878906 107.839844 158.707031 107.511719 158.496094 107.207031 C 158.285156 106.902344 158.039062 106.625 157.761719 106.378906 C 157.480469 106.132812 157.179688 105.921875 156.847656 105.75 C 156.519531 105.578125 156.171875 105.445312 155.8125 105.355469 C 155.453125 105.265625 155.085938 105.222656 154.710938 105.222656 Z M 238.453125 151.429688 C 243.484375 236.042969 145.355469 219.894531 143.71875 319.636719 C 156.820312 298.574219 170.78125 290.179688 185.605469 294.449219 C 206.886719 308.605469 220.234375 308.769531 225.652344 294.945312 C 224.808594 289.398438 226.195312 285.574219 229.808594 283.472656 C 236.285156 282.988281 238.742188 279.785156 237.175781 273.863281 C 242.675781 275.226562 245.722656 273.804688 246.320312 269.601562 C 244.179688 261.898438 248.183594 257.914062 258.335938 257.652344 C 265.554688 257.046875 268.84375 254.417969 268.199219 249.773438 C 265.621094 236.90625 263.855469 227.789062 262.890625 222.414062 C 260.535156 214.203125 261.84375 206.367188 266.824219 198.914062 C 285.199219 157.683594 275.089844 121.816406 236.492188 91.300781 C 183.425781 55.347656 134.746094 61.707031 104.738281 95.746094 C 106.144531 94.507812 107.59375 93.316406 109.085938 92.179688 C 110.578125 91.039062 112.105469 89.957031 113.671875 88.921875 C 115.238281 87.890625 116.835938 86.914062 118.472656 85.996094 C 120.105469 85.074219 121.769531 84.214844 123.464844 83.410156 C 125.160156 82.605469 126.882812 81.859375 128.628906 81.175781 C 130.375 80.492188 132.140625 79.871094 133.933594 79.3125 C 135.722656 78.75 137.53125 78.253906 139.355469 77.820312 C 141.179688 77.386719 143.015625 77.015625 144.867188 76.710938 C 146.71875 76.402344 148.578125 76.164062 150.445312 75.988281 C 152.3125 75.8125 154.183594 75.699219 156.058594 75.65625 C 157.933594 75.609375 159.808594 75.628906 161.679688 75.714844 C 163.554688 75.800781 165.421875 75.953125 167.285156 76.167969 C 169.148438 76.382812 171.003906 76.664062 172.847656 77.007812 C 174.691406 77.355469 176.519531 77.765625 178.335938 78.238281 C 180.148438 78.710938 181.945312 79.246094 183.722656 79.84375 C 185.5 80.445312 187.257812 81.105469 188.988281 81.824219 C 190.71875 82.546875 192.421875 83.328125 194.101562 84.167969 C 195.777344 85.007812 197.421875 85.90625 199.039062 86.859375 C 200.652344 87.816406 202.230469 88.824219 203.773438 89.890625 C 205.316406 90.957031 206.824219 92.074219 208.289062 93.242188 C 209.753906 94.414062 211.175781 95.632812 212.558594 96.902344 C 213.9375 98.175781 215.273438 99.488281 216.5625 100.851562 C 217.851562 102.214844 219.089844 103.621094 220.28125 105.070312 C 221.46875 106.519531 222.609375 108.011719 223.695312 109.539062 C 224.78125 111.070312 225.8125 112.632812 226.789062 114.234375 C 227.769531 115.835938 228.6875 117.46875 229.550781 119.132812 C 230.414062 120.800781 231.21875 122.492188 231.960938 124.214844 C 232.707031 125.9375 233.390625 127.679688 234.015625 129.449219 C 234.636719 131.21875 235.199219 133.007812 235.695312 134.816406 C 236.195312 136.625 236.628906 138.449219 237 140.285156 C 237.371094 142.125 237.675781 143.976562 237.917969 145.835938 C 238.160156 147.695312 238.335938 149.5625 238.445312 151.433594 Z M 238.453125 151.429688 " fill-opacity="1" fill-rule="evenodd"/></g><g clip-path="url(#7979b452c5)"><g clip-path="url(#c8161d3950)"><path fill="#744dcb" d="M 81.203125 55.339844 L 285.222656 55.339844 L 285.222656 319.632812 L 81.203125 319.632812 Z M 81.203125 55.339844 " fill-opacity="1" fill-rule="nonzero"/></g></g></svg>